<?xml version="1.0" standalone="no"?>
<!DOCTYPE svg PUBLIC "-//W3C//DTD SVG 20010904//EN"
 "http://www.w3.org/TR/2001/REC-SVG-20010904/DTD/svg10.dtd">
<svg version="1.0" xmlns="http://www.w3.org/2000/svg"
 width="512.000000pt" height="512.000000pt" viewBox="0 0 512.000000 512.000000"
 preserveAspectRatio="xMidYMid meet">
<metadata>
Created by potrace 1.11, written by Peter Selinger 2001-2013
</metadata>
<g transform="translate(0.000000,512.000000) scale(0.100000,-0.100000)"
fill="#000000" stroke="none">
<path d="M2693 4922 c-30 -4 -70 -47 -76 -80 -2 -15 -3 -432 -2 -928 l3 -901
-1232 1 c-736 1 -1247 -2 -1270 -8 -31 -7 -42 -16 -56 -49 -13 -29 -16 -47 -9
-70 4 -16 10 -31 11 -33 2 -2 583 -586 1292 -1299 1027 -1031 1296 -1297 1324
-1305 25 -7 44 -5 67 4 20 9 287 267 670 648 350 348 861 856 1135 1128 275
272 503 506 508 520 25 68 38 53 -612 700 -336 335 -800 796 -1031 1024 -231
229 -470 466 -530 526 -109 108 -143 130 -192 122z m1117 -1962 l375 -371
-574 -571 -574 -571 -42 44 c-24 24 -228 228 -454 453 -226 225 -411 412 -411
415 0 3 236 7 523 7 574 1 568 1 598 60 13 28 15 98 14 553 l-1 521 86 -84
c47 -46 254 -251 460 -456z"/>
</g>
</svg>
